#!OML:ASF I:\Actors\actors\Patient Classification 1\Patient 1\Session 1\Subject1.ASF
:FULLY-SPECIFIED
:DEGREES
1743
root 0.145277 17.4526 8.01752 6.1021 -1.7122 -8.42169
lowerback -3.22941 2.42508 6.12683
upperback -7.78256 3.38303 1.93661
thorax -6.09123 1.39363 -1.45828
lowerneck -7.75467 -3.7437 -3.62021
upperneck 17.4236 -6.12916 8.3089
head 6.95702 -2.51639 2.76576
rclavicle 1.49585e-014 -4.57205e-015
rhumerus -50.5023 -29.3539 -61.996
rradius 16.4293
rwrist 55.8846
rhand 9.02903 -35.1013
rfingers 7.12502
rthumb 34.2048 -421.839
lclavicle 1.49585e-014 -4.57205e-015
lhumerus -57.5589 41.1904 46.4458
lradius 12.4745
lwrist -66.5084
lhand -18.0025 -13.3597
lfingers 7.12502
lthumb 8.26797 16.4585
rfemur -3.56883 20.1824 25.5713
rtibia 6.68562
rfoot -13.3276 -24.6887
rtoes 5.79564
lfemur 5.87977 -35.9519 -13.1207
ltibia -3.20143
lfoot -17.8647 44.8882
ltoes 7.15023
1744
root 0.147332 17.4553 8.02269 6.26398 -1.6113 -8.41234
lowerback -3.36207 2.43357 6.19123
upperback -7.87442 3.38621 1.88537
thorax -6.1087 1.38796 -1.54295
lowerneck -7.67853 -3.83575 -3.65692
upperneck 17.5896 -6.27309 8.34637
head 7.00865 -2.58319 2.77325
rclavicle 3.13086e-015 -1.82882e-014
rhumerus -50.4012 -29.0215 -62.4984
rradius 16.4993
rwrist 56.0833
rhand 8.96155 -35.049
rfingers 7.12502
rthumb 34.1407 -421.801
lclavicle 3.13086e-015 -1.82882e-014
lhumerus -57.3188 40.9453 46.8072
lradius 12.5174
lwrist -66.2266
lhand -18.308 -13.5249
lfingers 7.12502
lthumb 7.97306 16.3047
rfemur -3.64016 20.3083 25.5166
rtibia 6.53248
rfoot -13.3464 -24.8767
rtoes 6.04381
lfemur 5.78454 -36.2371 -13.0686
ltibia -3.33659
lfoot -18.0988 45.0727
ltoes 7.39522
1745
root 0.14919 17.4565 8.03034 6.44502 -1.46639 -8.41868
lowerback -3.54019 2.42825 6.26986
upperback -7.97812 3.36828 1.84796
thorax -6.11497 1.37157 -1.61904
lowerneck -7.51591 -3.91355 -3.80766
upperneck 17.6796 -6.39144 8.46547
head 7.02484 -2.64252 2.82984
rclavicle 6.95746e-016 -2.66371e-014
rhumerus -50.3911 -28.8226 -62.7868
rradius 16.5642
rwrist 56.3393
rhand 8.92283 -34.901
rfingers 7.12502
rthumb 34.104 -421.662
lclavicle 6.95746e-016 -2.66371e-014
lhumerus -57.2758 40.8828 46.8805
lradius 12.53
lwrist -66.2306
lhand -18.4211 -13.4125
lfingers 7.12502
lthumb 7.86395 16.4212
rfemur -3.6656 20.5065 25.4948
rtibia 6.29738
rfoot -13.3384 -25.192
rtoes 6.30036
lfemur 5.66057 -36.5769 -12.9855
ltibia -3.45553
lfoot -18.303 45.2614
ltoes 7.72337
1746
root 0.150452 17.4579 8.04018 6.62659 -1.33315 -8.39031
lowerback -3.77867 2.41937 6.29171
upperback -8.05621 3.33886 1.81935
thorax -6.06293 1.35531 -1.65148
lowerneck -7.29622 -3.97058 -3.89983
upperneck 17.7027 -6.47038 8.50459
head 7.00242 -2.6887 2.85489
rclavicle -1.61513e-014 7.7526e-015
rhumerus -50.3332 -28.6505 -63.0094
rradius 16.6003
rwrist 56.5822
rhand 8.86525 -34.6918
rfingers 7.12502
rthumb 34.0493 -421.465
lclavicle -1.61513e-014 7.7526e-015
lhumerus -57.2947 40.9485 46.8472
lradius 12.5358
lwrist -66.3246
lhand -18.4033 -13.3632
lfingers 7.12502
lthumb 7.88112 16.4699
rfemur -3.64633 20.721 25.4401
rtibia 5.99417
rfoot -13.2941 -25.5265
rtoes 6.48783
lfemur 5.57916 -36.9816 -12.9812
ltibia -3.57874
lfoot -18.4716 45.5261
ltoes 7.9203
1747
root 0.151732 17.4598 8.05037 6.75108 -1.18299 -8.34642
lowerback -3.97869 2.3978 6.29752
upperback -8.12782 3.29556 1.79258
thorax -6.02774 1.33269 -1.67486
lowerneck -7.12006 -4.04742 -4.03016
upperneck 17.8208 -6.58219 8.56047
head 7.02251 -2.74865 2.88869
rclavicle -1.4064e-014 3.97569e-016
rhumerus -50.2547 -28.401 -63.2713
rradius 16.6411
rwrist 56.5454
rhand 8.71913 -34.6428
rfingers 7.12502
rthumb 33.9105 -421.446
lclavicle -1.4064e-014 3.97569e-016
lhumerus -57.2496 40.9089 46.9446
lradius 12.5581
lwrist -66.2482
lhand -18.3865 -13.3683
lfingers 7.12502
lthumb 7.89727 16.4642
rfemur -3.53281 20.9087 25.3911
rtibia 5.63854
rfoot -13.2524 -25.8404
rtoes 6.74084
lfemur 5.59387 -37.393 -13.0523
ltibia -3.72552
lfoot -18.4523 45.8112
ltoes 7.81533
1748
root 0.153789 17.4613 8.05998 6.81558 -1.02716 -8.32504
lowerback -4.08599 2.37285 6.33339
upperback -8.21338 3.25711 1.77416
thorax -6.05969 1.30864 -1.71062
lowerneck -7.06614 -4.15078 -4.24148
upperneck 18.1103 -6.7373 8.64433
head 7.12671 -2.82557 2.94005
rclavicle -1.33683e-014 -1.61016e-014
rhumerus -50.2387 -28.1573 -63.4477
rradius 16.6794
rwrist 56.3426
rhand 9.39299 -34.7203
rfingers 7.12502
rthumb 34.5504 -421.38
lclavicle -1.33683e-014 -1.61016e-014
lhumerus -57.3926 40.975 46.784
lradius 12.5709
lwrist -66.4064
lhand -18.3063 -13.4092
lfingers 7.12502
lthumb 7.9747 16.4204
rfemur -3.34258 21.1114 25.3942
rtibia 5.28869
rfoot -13.2828 -26.1628
rtoes 7.09553
lfemur 5.65276 -37.795 -13.137
ltibia -3.83081
lfoot -18.3609 46.0813
ltoes 7.87655
1749
root 0.156497 17.4625 8.07014 6.86351 -0.899516 -8.29783
lowerback -4.17331 2.36139 6.37165
upperback -8.29262 3.23821 1.76041
thorax -6.09507 1.29428 -1.74369
lowerneck -7.16761 -4.2599 -4.25012
upperneck 18.6468 -6.89741 8.4735
head 7.32468 -2.90265 2.87189
rclavicle -7.8023e-015 2.82274e-014
rhumerus -50.2369 -27.9302 -63.5415
rradius 16.7185
rwrist 56.1444
rhand 10.173 -34.7021
rfingers 7.12502
rthumb 35.2904 -421.19
lclavicle -7.8023e-015 2.82274e-014
lhumerus -57.6067 41.1296 46.511
lradius 12.5671
lwrist -66.7082
lhand -18.1545 -13.4935
lfingers 7.12502
lthumb 8.12119 16.3305
rfemur -3.12047 21.3881 25.3999
rtibia 4.92631
rfoot -13.3154 -26.541
rtoes 7.37328
lfemur 5.72098 -38.1914 -13.2476
ltibia -3.9037
lfoot -18.3795 46.3568
ltoes 8.38955
1750
root 0.158933 17.4631 8.08098 6.94467 -0.751264 -8.29196
lowerback -4.30489 2.34903 6.44125
upperback -8.36931 3.21432 1.75492
thorax -6.10235 1.27674 -1.7835
lowerneck -7.31873 -4.38895 -4.44593
upperneck 19.2319 -7.08127 8.40979
head 7.56054 -2.99324 2.86669
rclavicle 4.47266e-015 2.24627e-014
rhumerus -50.2459 -27.8052 -63.5414
rradius 16.7807
rwrist 56.0961
rhand 9.35761 -34.6261
rfingers 7.12502
rthumb 34.5168 -421.294
lclavicle 4.47266e-015 2.24627e-014
lhumerus -57.6034 41.1215 46.5849
lradius 12.5854
lwrist -66.7215
lhand -18.1241 -13.5186
lfingers 7.12502
lthumb 8.15053 16.3042
rfemur -2.91483 21.7755 25.4345
rtibia 4.53723
rfoot -13.3221 -27.0425
rtoes 7.78547
lfemur 5.77735 -38.6608 -13.3176
ltibia -4.00762
lfoot -18.4762 46.6708
ltoes 9.10262
1751
root 0.16113 17.4619 8.0919 7.09071 -0.586632 -8.30818
lowerback -4.50092 2.32305 6.51879
upperback -8.47382 3.16806 1.75387
thorax -6.10509 1.24742 -1.8209
lowerneck -7.33056 -4.49561 -4.8462
upperneck 19.6635 -7.25598 8.64966
head 7.74031 -3.07551 2.99898
rclavicle -2.14687e-014 -5.1684e-015
rhumerus -50.3787 -27.9004 -63.3238
rradius 16.8393
rwrist 56.4948
rhand 8.40211 -34.6722
rfingers 7.12502
rthumb 33.6093 -421.542
lclavicle -2.14687e-014 -5.1684e-015
lhumerus -57.4625 40.9381 46.8909
lradius 12.6302
lwrist -66.4266
lhand -18.2096 -13.5602
lfingers 7.12502
lthumb 8.06802 16.2658
rfemur -2.80908 22.1805 25.4743
rtibia 4.202
rfoot -13.372 -27.5594
rtoes 8.27314
lfemur 5.81367 -39.3183 -13.3544
ltibia -4.14195
lfoot -18.7921 47.1176
ltoes 9.88798
1752
root 0.163841 17.4599 8.10361 7.25857 -0.471803 -8.25739
lowerback -4.7248 2.30515 6.52149
upperback -8.60521 3.13058 1.72776
thorax -6.12187 1.22522 -1.8426
lowerneck -7.17494 -4.58516 -5.11835
upperneck 19.9528 -7.40088 8.79588
head 7.8339 -3.15042 3.08454
rclavicle -1.2424e-014 -3.35946e-014
rhumerus -50.6227 -28.0508 -63.002
rradius 16.8864
rwrist 57.0934
rhand 8.03933 -34.6786
rfingers 7.12502
rthumb 33.2644 -421.623
lclavicle -1.2424e-014 -3.35946e-014
lhumerus -57.5014 40.8864 46.8842
lradius 12.6197
lwrist -66.337
lhand -18.3012 -13.5627
lfingers 7.12502
lthumb 7.97966 16.2666
rfemur -2.77 22.4275 25.3962
rtibia 3.90924
rfoot -13.3905 -27.8838
rtoes 8.47625
lfemur 5.86936 -40.0572 -13.5142
ltibia -4.25674
lfoot -19.2124 47.6946
ltoes 10.5122
1753
root 0.166134 17.4591 8.11592 7.38222 -0.408652 -8.18405
lowerback -4.90647 2.29722 6.49815
upperback -8.7394 3.10987 1.68906
thorax -6.16478 1.21156 -1.86493
lowerneck -6.97501 -4.66715 -5.25353
upperneck 20.238 -7.53016 8.80976
head 7.90755 -3.22098 3.10561
rclavicle -4.17448e-015 2.38542e-015
rhumerus -50.8339 -28.0749 -62.7893
rradius 16.9248
rwrist 57.5357
rhand 7.66871 -34.6118
rfingers 7.12502
rthumb 32.912 -421.631
lclavicle -4.17448e-015 2.38542e-015
lhumerus -57.5195 40.7987 46.9052
lradius 12.5946
lwrist -66.2382
lhand -18.3558 -13.4196
lfingers 7.12502
lthumb 7.9269 16.4117
rfemur -2.68129 22.7143 25.3056
rtibia 3.61118
rfoot -13.4052 -28.2106
rtoes 8.6553
lfemur 5.9873 -40.7273 -13.7436
ltibia -4.35642
lfoot -19.4733 48.2954
ltoes 10.8195
1754
root 0.167941 17.46 8.1275 7.45535 -0.358673 -8.18198
lowerback -5.01358 2.29539 6.54544
upperback -8.86721 3.10353 1.66149
thorax -6.24058 1.20002 -1.91761
lowerneck -6.82064 -4.7561 -5.34172
upperneck 20.5718 -7.66225 8.74256
head 8.00149 -3.29446 3.0908
rclavicle 1.64991e-014 -1.76918e-014
rhumerus -51.0121 -28.0827 -62.6093
rradius 16.9503
rwrist 57.9828
rhand 7.41504 -34.5995
rfingers 7.12502
rthumb 32.6707 -421.669
lclavicle 1.64991e-014 -1.76918e-014
lhumerus -57.4889 40.6293 47.0215
lradius 12.5984
lwrist -66.0141
lhand -18.3695 -13.3606
lfingers 7.12502
lthumb 7.91375 16.4712
rfemur -2.54039 23.106 25.3366
rtibia 3.34451
rfoot -13.4441 -28.6273
rtoes 8.82443
lfemur 6.15244 -41.3036 -13.9024
ltibia -4.44483
lfoot -19.7416 48.8034
ltoes 11.1082
1755
root 0.170045 17.4611 8.13757 7.55352 -0.314758 -8.23098
lowerback -5.12599 2.31192 6.65382
upperback -8.99098 3.12086 1.64314
thorax -6.30591 1.19703 -1.99397
lowerneck -6.71208 -4.86099 -5.45164
upperneck 20.9068 -7.8029 8.63271
head 8.10456 -3.37639 3.06329
rclavicle 4.47266e-015 -2.18663e-015
rhumerus -51.1694 -28.1742 -62.353
rradius 16.9245
rwrist 58.5237
rhand 7.18602 -34.5198
rfingers 7.12502
rthumb 32.4527 -421.634
lclavicle 4.47266e-015 -2.18663e-015
lhumerus -57.5599 40.5701 46.9749
lradius 12.6132
lwrist -65.9011
lhand -18.4194 -13.5859
lfingers 7.12502
lthumb 7.86557 16.2478
rfemur -2.47099 23.3481 25.4009
rtibia 3.13594
rfoot -13.4154 -28.9033
rtoes 8.88936
lfemur 6.28465 -41.8262 -13.9675
ltibia -4.54491
lfoot -20.135 49.229
ltoes 11.5466
